<svg width="56" height="56" viewBox="0 0 56 56" fill="none" xmlns="http://www.w3.org/2000/svg">
<rect width="56" height="56" rx="4" fill="#F2F2F2"/>
<path d="M33.189 14C34.1186 14.1555 35.0482 14.311 35.8229 14.4664C39.2314 15.0884 41.8653 17.5761 42.7948 20.8412C43.2596 23.329 42.9498 25.9722 41.7103 28.1489C40.3159 30.9476 38.4567 33.2799 35.9778 35.1456C32.7242 37.9443 28.8509 40.1211 24.6677 41.5204C23.7381 41.8314 22.6536 41.9869 21.724 41.9869C20.0198 42.1424 18.4704 40.8985 18.3155 39.1882V38.4108C18.6254 35.1456 20.9494 32.5024 24.2029 31.5695C24.9776 31.5695 25.7523 31.5695 26.372 31.8805C27.1467 32.1915 27.6115 33.1244 27.3016 34.0573C27.1467 34.3682 26.9917 34.5237 26.8368 34.6792C26.2171 35.3011 25.5973 35.9231 24.9776 36.3895C24.3579 36.8559 23.8931 37.3224 23.4283 37.9443C23.1184 38.2553 22.9635 38.5663 22.8086 38.8772C22.4987 39.4992 22.8086 39.8101 23.4283 39.8101C23.7381 39.8101 24.048 39.8101 24.3579 39.6546C29.7805 37.6334 34.1186 33.9018 36.9074 28.9263C37.3722 28.1489 37.5271 27.3715 37.5271 26.4386C37.6821 23.7954 35.9778 22.2406 33.4989 23.018C31.6397 23.6399 29.6256 24.4173 27.9213 25.3502C26.0621 26.2831 24.2029 27.527 22.3438 28.4599C20.9494 29.2373 19.4 29.7037 17.6958 29.8592C16.9211 30.0147 16.1465 29.8592 15.5267 29.7037C13.9774 29.5483 12.7379 27.9934 13.0478 26.1276C13.0478 25.9722 13.0478 25.8167 13.2027 25.6612C13.9774 23.4844 15.3718 21.4632 17.231 20.2193C20.7944 17.4206 24.9776 15.3993 29.4706 14.4664C30.2453 14.311 31.1749 14.1555 31.9496 14H33.189Z" fill="#EB2227"/>
</svg>
