<svg width="56" height="56" viewBox="0 0 56 56" fill="none" xmlns="http://www.w3.org/2000/svg">
<rect width="56" height="56" rx="4" fill="#F2F2F2"/>
<path d="M40.0184 36.6852C36.6247 39.6146 31.7058 41.1789 27.4702 41.1789C21.5311 41.1789 16.1835 38.605 12.1406 34.3239C11.8206 33.9876 12.1043 33.5276 12.4862 33.7892C16.8518 36.7663 22.2485 38.5559 27.8243 38.5559C31.5835 38.5559 35.7231 37.6458 39.5228 35.7531C40.0987 35.4658 40.5822 36.1925 40.0184 36.6831V36.6852ZM41.4305 34.791C40.9982 34.1419 38.5629 34.4839 37.4708 34.6368C37.1366 34.6837 37.0847 34.3438 37.3854 34.1021C39.3244 32.4987 42.5084 32.9623 42.8802 33.4984C43.2542 34.0367 42.7864 37.7738 40.9605 39.5613C40.6803 39.8343 40.4165 39.6879 40.541 39.3238C40.9505 38.1279 41.8684 35.4445 41.4326 34.791H41.4305Z" fill="#FF9900"/>
<path fill-rule="evenodd" clip-rule="evenodd" d="M30.4554 26.0167C30.4554 27.4103 30.4895 28.5742 29.8091 29.8135C29.2594 30.8189 28.3899 31.4361 27.4158 31.4361C26.0876 31.4361 25.3161 30.3909 25.3161 28.843C25.3161 25.7948 27.9554 25.241 30.4554 25.241V26.0167ZM33.9429 34.7402C33.8332 34.8385 33.6953 34.8998 33.5488 34.9154C33.4023 34.9309 33.2546 34.9 33.1267 34.827C31.9791 33.8415 31.7757 33.3822 31.1415 32.4415C29.2473 34.4451 27.9056 35.0445 25.442 35.0445C22.536 35.0445 20.2686 33.1881 20.2686 29.4666C20.2686 26.5628 21.7923 24.5833 23.9559 23.6177C25.8359 22.7602 28.4553 22.608 30.4547 22.3748V21.9091C30.4547 21.058 30.5215 20.0484 30.0394 19.316C29.6157 18.6569 28.8072 18.386 28.0998 18.386C26.7794 18.386 25.5998 19.0849 25.3161 20.5333C25.2557 20.8561 25.0281 21.1732 24.716 21.1874L21.3621 20.817C21.0827 20.7516 20.7705 20.5141 20.8487 20.0647C21.6202 15.8583 25.2941 14.5898 28.5818 14.5898C30.2613 14.5898 32.4612 15.052 33.7886 16.371C35.4723 17.9942 35.3124 20.1678 35.3124 22.527V28.105C35.3124 29.7815 35.9829 30.5196 36.6128 31.4226C36.8382 31.7468 36.8887 32.135 36.6064 32.3761C35.9004 32.9861 34.6468 34.1181 33.9543 34.7516L33.9451 34.7416" fill="#221F1F"/>
</svg>
