<svg width="56" height="56" viewBox="0 0 56 56" fill="none" xmlns="http://www.w3.org/2000/svg">
<rect width="56" height="56" rx="4" fill="#F2F2F2"/>
<g clip-path="url(#clip0_0_5362)">
<path fill-rule="evenodd" clip-rule="evenodd" d="M8 19C8 17.3431 9.34315 16 11 16H45C46.6569 16 48 17.3431 48 19V37C48 38.6569 46.6569 40 45 40H11C9.34315 40 8 38.6569 8 37V19Z" fill="#006FCF"/>
<path d="M17.0531 26.2851L17.8971 28.3323H16.2147L17.0531 26.2851ZM34.5891 26.3707H31.3411V27.2723H34.5371V28.6243H31.3483V29.6299H34.5963V30.4363L36.8619 27.9875L34.5955 25.4347L34.5891 26.3707ZM19.2483 23.8179H23.6067L24.5747 25.9283L25.4707 23.8115H36.7835L37.9595 25.1091L39.1755 23.8115H44.3723L40.5331 28.0131L44.3331 32.1891H39.0595L37.8835 30.8915L36.6563 32.1891H18.2083L17.6699 30.8915H16.4379L15.8971 32.1891H11.6299L15.2147 23.8115H18.9563L19.2475 23.8179H19.2483ZM28.6987 24.9939H26.2563L24.6203 28.8515L22.8475 24.9939H20.4235V30.2403L18.1755 24.9923H16.0019L13.4035 31.0059H15.0995L15.6387 29.7075H18.4707L19.0099 31.0059H21.9771V26.7131L23.8867 31.0123H25.1851L27.0835 26.7267V31.0139H28.6739L28.7003 24.9915L28.6987 24.9939ZM38.8883 28.0131L41.6491 24.9939H39.6619L37.9147 26.8763L36.2267 24.9939H29.7963V31.0131H36.1347L37.8955 29.1171L39.5835 31.0131H41.6299L38.8883 28.0131Z" fill="white"/>
</g>
<defs>
<clipPath id="clip0_0_5362">
<rect width="40" height="24" fill="white" transform="translate(8 16)"/>
</clipPath>
</defs>
</svg>
