<svg width="24" height="24" viewBox="0 0 24 24" fill="none" xmlns="http://www.w3.org/2000/svg">
<path d="M4.84033 4.84037C5.25264 4.42806 5.90489 4.38653 6.36486 4.73661L6.48361 4.84037L12 10.3575L17.5164 4.84037C17.9399 4.41685 18.609 4.38861 19.0653 4.75567L19.1597 4.84037C19.572 5.25268 19.6135 5.90493 19.2521 6.37875L19.1597 6.48365L13.6425 12L19.1597 17.5164C19.5832 17.94 19.6114 18.6091 19.2444 19.0654L19.1597 19.1597C18.7474 19.572 18.0951 19.6136 17.6213 19.2522L17.5164 19.1597L11.9991 13.6425L6.48361 19.1597C6.06008 19.5832 5.39095 19.6115 4.93468 19.2444L4.84033 19.1597C4.42802 18.7474 4.38649 18.0952 4.74786 17.6213L4.84033 17.5164L10.3566 12L4.84033 6.48365C4.41681 6.06012 4.38857 5.39099 4.75563 4.93472L4.84033 4.84037Z" fill="#4D4D4D"/>
<path fill-rule="evenodd" clip-rule="evenodd" d="M4.62839 4.62844C5.14712 4.1097 5.96764 4.05734 6.54674 4.49808L6.5629 4.51038L6.69642 4.62797L12.0002 9.9334L17.3044 4.62845C17.8374 4.09544 18.6792 4.06009 19.2535 4.52211L19.2662 4.5323L19.3723 4.62813C19.893 5.14883 19.9415 5.97008 19.4909 6.56087L19.4844 6.56933L19.3724 6.69641L14.067 12.0002L19.372 17.3045C19.905 17.8375 19.9403 18.6793 19.4783 19.2536L19.4681 19.2663L19.3723 19.3723C18.8516 19.893 18.0303 19.9415 17.4395 19.4909L17.4311 19.4845L17.304 19.3725L11.9993 14.067L6.69596 19.372C6.16295 19.905 5.32115 19.9404 4.74682 19.4784L4.73415 19.4682L4.62808 19.3723C4.10737 18.8516 4.05891 18.0304 4.50951 17.4396L4.51596 17.4311L4.62796 17.3041L9.93249 12.0002L4.62839 6.69598C4.62839 6.69598 4.62839 6.69598 4.62839 6.69598C4.09538 6.16296 4.06004 5.3212 4.52206 4.74687L4.53225 4.7342L4.62839 4.62844ZM10.3567 12.0002L4.84052 17.5166L4.74805 17.6215C4.38667 18.0953 4.42821 18.7476 4.84052 19.1599L4.93487 19.2446C5.39114 19.6117 6.06027 19.5834 6.48379 19.1599L11.9992 13.6427L17.5166 19.1599L17.6215 19.2524C18.0953 19.6138 18.7475 19.5722 19.1599 19.1599L19.2446 19.0656C19.6116 18.6093 19.5834 17.9402 19.1599 17.5166L13.6427 12.0002L19.1599 6.48384L19.2523 6.37894C19.6137 5.90512 19.5722 5.25288 19.1599 4.84057L19.0655 4.75586C18.6092 4.38881 17.9401 4.41704 17.5166 4.84057L12.0002 10.3577L6.48379 4.84057L6.36505 4.7368C5.90507 4.38672 5.25283 4.42826 4.84052 4.84057L4.75581 4.93492C4.38876 5.39119 4.41699 6.06032 4.84052 6.48384L10.3567 12.0002Z" fill="#4D4D4D"/>
</svg>
