<svg width="56" height="56" viewBox="0 0 56 56" fill="none" xmlns="http://www.w3.org/2000/svg">
<rect width="56" height="56" rx="4" fill="#F2F2F2"/>
<path d="M31.1368 40.3796C37.862 40.4121 44.0004 34.8445 44.0004 28.0717C44.0004 20.6658 37.862 15.5461 31.1368 15.5488H25.3488C18.5435 15.5461 12.9414 20.6672 12.9414 28.0717C12.9414 34.8459 18.5435 40.4121 25.3488 40.3796H31.1368Z" fill="#0079BE"/>
<path d="M25.3764 16.5752C19.1571 16.5773 14.1183 21.6638 14.1162 27.9418C14.1183 34.2191 19.1571 39.3057 25.3764 39.3077C31.5964 39.3057 36.6373 34.2191 36.638 27.9418C36.6373 21.6638 31.597 16.5773 25.3764 16.5752ZM18.2393 27.9418C18.238 26.4903 18.6747 25.0721 19.4921 23.8727C20.3096 22.6732 21.4699 21.7483 22.8214 21.2187V34.6642C21.4698 34.135 20.3093 33.2103 19.4918 32.0109C18.6743 30.8115 18.2378 29.3933 18.2393 27.9418ZM27.9307 34.667V21.218C29.2832 21.7468 30.4445 22.6717 31.2626 23.8716C32.0807 25.0714 32.5174 26.4903 32.5155 27.9425C32.5171 29.3946 32.0803 30.8134 31.2622 32.0132C30.4442 33.213 29.2831 34.1379 27.9307 34.667Z" fill="white"/>
<path d="M31.1368 40.3796C37.862 40.4121 44.0004 34.8445 44.0004 28.0717C44.0004 20.6658 37.862 15.5461 31.1368 15.5488H25.3488C18.5435 15.5461 12.9414 20.6672 12.9414 28.0717C12.9414 34.8459 18.5435 40.4121 25.3488 40.3796H31.1368Z" fill="#0079BE"/>
<path d="M25.3764 16.5752C19.1571 16.5773 14.1183 21.6638 14.1162 27.9418C14.1183 34.2191 19.1571 39.3057 25.3764 39.3077C31.5964 39.3057 36.6373 34.2191 36.638 27.9418C36.6373 21.6638 31.597 16.5773 25.3764 16.5752ZM18.2393 27.9418C18.238 26.4903 18.6747 25.0721 19.4921 23.8727C20.3096 22.6732 21.4699 21.7483 22.8214 21.2187V34.6642C21.4698 34.135 20.3093 33.2103 19.4918 32.0109C18.6743 30.8115 18.2378 29.3933 18.2393 27.9418ZM27.9307 34.667V21.218C29.2832 21.7468 30.4445 22.6717 31.2626 23.8716C32.0807 25.0714 32.5174 26.4903 32.5155 27.9425C32.5171 29.3946 32.0803 30.8134 31.2622 32.0132C30.4442 33.213 29.2831 34.1379 27.9307 34.667Z" fill="white"/>
</svg>
