<svg width="21" height="20" viewBox="0 0 21 20" fill="none" xmlns="http://www.w3.org/2000/svg">
<g clip-path="url(#clip0_96165_12146)">
<path fill-rule="evenodd" clip-rule="evenodd" d="M10.5 0C16.0228 0 20.5 4.47715 20.5 10C20.5 15.5228 16.0228 20 10.5 20C4.97715 20 0.5 15.5228 0.5 10C0.5 4.47715 4.97715 0 10.5 0ZM10.5 5.58973C10.9279 5.58973 11.2747 5.93655 11.2747 6.36439C11.2747 6.79222 10.9279 7.13904 10.5 7.13904C10.0722 7.13904 9.72536 6.79222 9.72536 6.36439C9.72536 5.93655 10.0722 5.58973 10.5 5.58973ZM11.1409 9.34539C11.1097 9.04256 10.8347 8.80572 10.5 8.80572C10.1444 8.80572 9.85618 9.07309 9.85618 9.4029V13.8131L9.85913 13.8706C9.89033 14.1734 10.1654 14.4103 10.5 14.4103C10.8556 14.4103 11.1439 14.1429 11.1439 13.8131V9.4029L11.1409 9.34539Z" fill="#146EB4"/>
</g>
<defs>
<clipPath id="clip0_96165_12146">
<rect width="20" height="20" fill="white" transform="translate(0.5)"/>
</clipPath>
</defs>
</svg>
