<svg width="24" height="24" viewBox="0 0 24 24" fill="none" xmlns="http://www.w3.org/2000/svg">
<path d="M11.9975 4C11.0157 4 10.2197 4.79594 10.2197 5.77778C10.2197 6.75962 11.0157 7.55556 11.9975 7.55556C12.9793 7.55556 13.7753 6.75962 13.7753 5.77778C13.7753 4.79594 12.9793 4 11.9975 4ZM11.9975 10.2222C11.0157 10.2222 10.2197 11.0182 10.2197 12C10.2197 12.9818 11.0157 13.7778 11.9975 13.7778C12.9793 13.7778 13.7753 12.9818 13.7753 12C13.7753 11.0182 12.9793 10.2222 11.9975 10.2222ZM11.9975 16.4444C11.0157 16.4444 10.2197 17.2404 10.2197 18.2222C10.2197 19.2041 11.0157 20 11.9975 20C12.9793 20 13.7753 19.2041 13.7753 18.2222C13.7753 17.2404 12.9793 16.4444 11.9975 16.4444Z" fill="#808080"/>
</svg>
