<svg width="56" height="56" viewBox="0 0 56 56" fill="none" xmlns="http://www.w3.org/2000/svg">
<rect width="56" height="56" rx="4" fill="#F2F2F2"/>
<g clip-path="url(#clip0_0_5318)">
<path d="M46.6394 31.6563V31.209H46.5254L46.3924 31.5072L46.2594 31.209H46.1454V31.6563H46.2214V31.3208L46.3544 31.619H46.4494L46.5824 31.3208V31.6563H46.6394ZM45.8794 31.6563V31.2835H46.0314V31.209H45.6514V31.2835H45.8034V31.6563H45.8794Z" fill="#00A2E5"/>
<path d="M33.1296 33.5756H22.8506V15.46H33.1296V33.5756Z" fill="#7375CF"/>
<path d="M23.516 24.518C23.516 20.8464 25.264 17.5662 28 15.4602C26.005 13.9132 23.478 13 20.742 13C14.263 13 9 18.1626 9 24.518C9 30.8734 14.263 36.036 20.742 36.036C23.478 36.036 26.005 35.1227 28 33.5758C25.264 31.4698 23.516 28.1896 23.516 24.518Z" fill="#EB001B"/>
<path d="M47 24.518C47 30.8734 41.737 36.036 35.258 36.036C32.522 36.036 29.995 35.1227 28 33.5758C30.736 31.4698 32.484 28.1896 32.484 24.518C32.484 20.8464 30.736 17.5662 28 15.4602C29.995 13.9132 32.522 13 35.258 13C41.737 13 47 18.1626 47 24.518Z" fill="#00A2E5"/>
<path d="M36.5883 38.7012C36.7213 38.7012 36.9303 38.7198 37.0633 38.7757L36.8543 39.4094C36.7023 39.3535 36.5693 39.3348 36.4363 39.3348C35.9993 39.3348 35.7713 39.6144 35.7713 40.1176V41.8323H35.0873V38.7757H35.7523V39.1485C35.9423 38.8689 36.2083 38.7012 36.5883 38.7012ZM34.0803 39.3721H32.9783V40.7513C32.9783 41.0495 33.0923 41.2545 33.4343 41.2545C33.6053 41.2545 33.8333 41.1986 34.0423 41.0868L34.2323 41.6645C34.0233 41.8136 33.6813 41.9068 33.3773 41.9068C32.5793 41.9068 32.2943 41.4782 32.2943 40.7699V39.3721H31.6673V38.7571H32.2943V37.8252H32.9783V38.7571H34.0803V39.3721ZM25.3973 40.0244C25.4733 39.5771 25.7393 39.2789 26.2333 39.2789C26.6703 39.2789 26.9553 39.5398 27.0313 40.0244H25.3973ZM27.7343 40.304C27.7343 39.3535 27.1263 38.7012 26.2523 38.7012C25.3403 38.7012 24.6943 39.3535 24.6943 40.304C24.6943 41.2731 25.3593 41.9068 26.2903 41.9068C26.7653 41.9068 27.1833 41.795 27.5633 41.4782L27.2213 40.9936C26.9553 41.1986 26.6323 41.3104 26.3093 41.3104C25.8723 41.3104 25.4733 41.1054 25.3783 40.5649H27.6963C27.7153 40.4717 27.7343 40.3972 27.7343 40.304ZM30.7173 39.5585C30.5273 39.4467 30.1473 39.2976 29.7483 39.2976C29.3683 39.2976 29.1593 39.428 29.1593 39.6517C29.1593 39.8567 29.3873 39.9126 29.6913 39.9499L30.0143 39.9871C30.6983 40.0803 31.0973 40.3599 31.0973 40.9004C31.0973 41.4782 30.5843 41.9068 29.6723 41.9068C29.1593 41.9068 28.6843 41.7764 28.3233 41.5154L28.6463 40.9936C28.8743 41.1613 29.2163 41.3104 29.6913 41.3104C30.1473 41.3104 30.3943 41.1799 30.3943 40.9377C30.3943 40.7699 30.2233 40.6767 29.8433 40.6208L29.5203 40.5836C28.8173 40.4904 28.4373 40.1735 28.4373 39.6889C28.4373 39.0739 28.9503 38.7012 29.7293 38.7012C30.2233 38.7012 30.6793 38.813 31.0023 39.018L30.7173 39.5585ZM39.0773 39.3162C38.9443 39.3162 38.8113 39.3348 38.6973 39.3907C38.5833 39.4467 38.4693 39.5026 38.3933 39.5958C38.3173 39.6889 38.2413 39.7821 38.1843 39.9126C38.1273 40.0244 38.1083 40.1735 38.1083 40.304C38.1083 40.4531 38.1273 40.5836 38.1843 40.6954C38.2413 40.8072 38.2983 40.919 38.3933 41.0122C38.4883 41.1054 38.5833 41.1613 38.6973 41.2172C38.8113 41.2731 38.9443 41.2918 39.0773 41.2918C39.2103 41.2918 39.3433 41.2731 39.4573 41.2172C39.5713 41.1613 39.6853 41.1054 39.7613 41.0122C39.8563 40.919 39.9133 40.8258 39.9703 40.6954C40.0273 40.5836 40.0463 40.4344 40.0463 40.304C40.0463 40.1549 40.0273 40.0244 39.9703 39.9126C39.9133 39.8008 39.8563 39.6889 39.7613 39.5958C39.6663 39.5026 39.5713 39.4467 39.4573 39.3907C39.3433 39.3535 39.2103 39.3162 39.0773 39.3162ZM39.0773 38.7012C39.3243 38.7012 39.5523 38.7384 39.7423 38.8316C39.9513 38.9062 40.1223 39.018 40.2743 39.1671C40.4263 39.3162 40.5403 39.4839 40.6353 39.6703C40.7113 39.8753 40.7683 40.0803 40.7683 40.304C40.7683 40.5276 40.7303 40.7513 40.6353 40.9377C40.5593 41.1427 40.4263 41.3104 40.2743 41.4409C40.1223 41.59 39.9513 41.7018 39.7423 41.7764C39.5333 41.8509 39.3053 41.9068 39.0773 41.9068C38.8303 41.9068 38.6023 41.8695 38.4123 41.7764C38.2033 41.7018 38.0323 41.59 37.8803 41.4409C37.7283 41.2918 37.6143 41.124 37.5193 40.9377C37.4433 40.7326 37.3863 40.5276 37.3863 40.304C37.3863 40.0803 37.4243 39.8567 37.5193 39.6703C37.5953 39.4653 37.7283 39.2976 37.8803 39.1671C38.0323 39.018 38.2033 38.9062 38.4123 38.8316C38.6023 38.7384 38.8303 38.7012 39.0773 38.7012ZM21.4453 40.304C21.4453 39.7635 21.8063 39.3162 22.3953 39.3162C22.9653 39.3162 23.3263 39.7449 23.3263 40.304C23.3263 40.8631 22.9463 41.2731 22.3953 41.2731C21.8063 41.2731 21.4453 40.8445 21.4453 40.304ZM23.9723 40.304V38.7757H23.2883V39.1485C23.0793 38.8689 22.7563 38.7012 22.3003 38.7012C21.4263 38.7012 20.7423 39.3721 20.7423 40.304C20.7423 41.2359 21.4263 41.9068 22.3003 41.9068C22.7373 41.9068 23.0603 41.7391 23.2883 41.4595V41.8323H23.9723V40.304ZM20.1533 41.8323V39.9126C20.1533 39.1857 19.6783 38.7012 18.9183 38.7012C18.5193 38.7012 18.1013 38.813 17.8163 39.2416C17.6073 38.9062 17.2653 38.7012 16.7903 38.7012C16.4673 38.7012 16.1253 38.7943 15.8783 39.1485V38.7757H15.1943V41.8323H15.8783V40.1363C15.8783 39.6144 16.1823 39.3162 16.6383 39.3162C17.0943 39.3162 17.3223 39.5958 17.3223 40.1176V41.8136H18.0063V40.1176C18.0063 39.5958 18.3293 39.2976 18.7663 39.2976C19.2223 39.2976 19.4503 39.5771 19.4503 40.099V41.795H20.1533V41.8323Z" fill="black"/>
<path d="M41.4906 41.5898V41.6643H41.5666C41.5856 41.6643 41.6046 41.6643 41.6046 41.6457C41.6236 41.6457 41.6236 41.6271 41.6236 41.6084C41.6236 41.5898 41.6236 41.5898 41.6046 41.5898C41.6046 41.5898 41.5856 41.5711 41.5666 41.5711H41.4906V41.5898ZM41.5666 41.5525C41.6046 41.5525 41.6236 41.5525 41.6426 41.5711C41.6616 41.5898 41.6806 41.6084 41.6806 41.6457C41.6806 41.6643 41.6806 41.683 41.6616 41.7016C41.6426 41.7202 41.6236 41.7202 41.5856 41.7202L41.6806 41.8321H41.6046L41.5096 41.7202H41.4906V41.8321H41.4336V41.5525H41.5666ZM41.5476 41.9253C41.5856 41.9253 41.6046 41.9253 41.6426 41.9066C41.6806 41.888 41.6996 41.8693 41.7186 41.8507C41.7376 41.8321 41.7566 41.8134 41.7756 41.7762C41.7946 41.7389 41.7946 41.7202 41.7946 41.683C41.7946 41.6457 41.7946 41.6271 41.7756 41.5898C41.7566 41.5525 41.7376 41.5339 41.7186 41.5152C41.6996 41.4966 41.6806 41.478 41.6426 41.4593C41.6236 41.4407 41.5856 41.4407 41.5476 41.4407C41.5096 41.4407 41.4906 41.4407 41.4526 41.4593C41.4146 41.478 41.3956 41.4966 41.3766 41.5152C41.3576 41.5339 41.3386 41.5711 41.3196 41.5898C41.3006 41.6271 41.3006 41.6457 41.3006 41.683C41.3006 41.7202 41.3006 41.7389 41.3196 41.7762C41.3386 41.8134 41.3576 41.8321 41.3766 41.8507C41.3956 41.8693 41.4336 41.888 41.4526 41.9066C41.4906 41.9253 41.5096 41.9253 41.5476 41.9253ZM41.5476 41.3848C41.5856 41.3848 41.6236 41.3848 41.6616 41.4034C41.6996 41.422 41.7376 41.4407 41.7566 41.4593C41.7756 41.478 41.8136 41.5152 41.8326 41.5525C41.8516 41.5898 41.8516 41.6271 41.8516 41.6643C41.8516 41.7016 41.8516 41.7389 41.8326 41.7762C41.8136 41.8134 41.7946 41.8507 41.7566 41.8693C41.7186 41.888 41.6996 41.9253 41.6616 41.9439C41.6236 41.9625 41.5856 41.9625 41.5476 41.9625C41.5096 41.9625 41.4526 41.9625 41.4146 41.9439C41.3766 41.9253 41.3386 41.9066 41.3196 41.8693C41.3006 41.8507 41.2626 41.8134 41.2436 41.7762C41.2246 41.7389 41.2246 41.7016 41.2246 41.6643C41.2246 41.6271 41.2246 41.5898 41.2436 41.5525C41.2626 41.5152 41.2816 41.478 41.3196 41.4593C41.3386 41.4407 41.3766 41.4034 41.4146 41.4034C41.4526 41.3848 41.5096 41.3848 41.5476 41.3848Z" fill="black"/>
</g>
<defs>
<clipPath id="clip0_0_5318">
<rect width="38" height="29" fill="white" transform="translate(9 13)"/>
</clipPath>
</defs>
</svg>
