<svg width="56" height="56" viewBox="0 0 56 56" fill="none" xmlns="http://www.w3.org/2000/svg">
<rect width="56" height="56" rx="4" fill="#F2F2F2"/>
<path fill-rule="evenodd" clip-rule="evenodd" d="M34.2951 17.8184C39.655 17.8184 44 22.3769 44 28.0002C44 33.6234 39.655 38.182 34.2951 38.182C31.8933 38.182 29.6954 37.2667 28.0008 35.7504C26.3055 37.2663 24.1071 38.182 21.7049 38.182C16.345 38.182 12 33.6234 12 28.0002C12 22.3769 16.345 17.8184 21.7049 17.8184C24.1071 17.8184 26.3055 18.734 28.0002 20.2509C29.6954 18.7337 31.8933 17.8184 34.2951 17.8184Z" fill="#FF5E00"/>
<path fill-rule="evenodd" clip-rule="evenodd" d="M21.7049 17.8184C24.1071 17.8184 26.3055 18.734 28.0002 20.2509C25.9137 22.1175 24.5902 24.8967 24.5902 28.0002C24.5902 31.1037 25.9137 33.8829 28.0008 35.7504C26.3055 37.2663 24.1071 38.182 21.7049 38.182C16.345 38.182 12 33.6234 12 28.0002C12 22.3769 16.345 17.8184 21.7049 17.8184Z" fill="#ED0006"/>
<path fill-rule="evenodd" clip-rule="evenodd" d="M34.2904 17.8184C39.6503 17.8184 43.9953 22.3769 43.9953 28.0002C43.9953 33.6234 39.6503 38.182 34.2904 38.182C31.8882 38.182 29.6898 37.2663 27.9951 35.7495C30.0821 33.882 31.4052 31.1032 31.4052 28.0002C31.4052 24.8972 30.0821 22.1184 27.9956 20.2509C29.6898 18.734 31.8882 17.8184 34.2904 17.8184V17.8184Z" fill="#F9A000"/>
</svg>
