<svg width="56" height="56" viewBox="0 0 56 56" fill="none" xmlns="http://www.w3.org/2000/svg">
<rect width="56" height="56" rx="4" fill="#F2F2F2"/>
<g clip-path="url(#clip0_0_5390)">
<path d="M47.8548 24.8391C47.4919 23.7649 46.503 22.9934 45.3415 22.9934H45.3172C44.5621 22.9934 43.8816 23.3188 43.3972 23.8412C42.912 23.3188 42.2315 22.9934 41.4773 22.9934H41.4529C40.7892 22.9934 40.1825 23.2451 39.7165 23.6616V23.4499C39.7006 23.239 39.533 23.0733 39.326 23.0733H37.5443C37.3264 23.0733 37.1504 23.2555 37.1504 23.482V33.5003C37.1504 33.7267 37.3264 33.909 37.5443 33.909H39.326C39.5246 33.909 39.688 33.7554 39.714 33.5567L39.7132 26.3647C39.7132 26.3395 39.714 26.3161 39.7165 26.2926C39.745 25.9716 39.9721 25.7078 40.3308 25.6748H40.397H40.5839H40.6593C40.8093 25.6887 40.9359 25.7433 41.0356 25.8258C41.1906 25.9533 41.277 26.1495 41.277 26.3647L41.2837 33.5211C41.2837 33.7476 41.4605 33.9307 41.6775 33.9307H43.4592C43.6696 33.9307 43.8406 33.7571 43.8506 33.541L43.8498 26.3551C43.8489 26.1191 43.9545 25.9056 44.1397 25.7789C44.2311 25.7182 44.3409 25.6774 44.4674 25.6652H44.5336H44.7205H44.7959C45.1814 25.7 45.4144 26.0028 45.4136 26.3551L45.4203 33.502C45.4203 33.7285 45.5971 33.9107 45.8142 33.9107H47.5959C47.8129 33.9107 47.9897 33.7285 47.9897 33.502V25.8154C47.9897 25.2912 47.9328 25.0682 47.8548 24.8391Z" fill="#54C1F0"/>
<path d="M35.7935 23.0994H34.7744V21.3899C34.7744 21.3882 34.7744 21.3865 34.7744 21.3847C34.7744 21.1791 34.6135 21.0125 34.4149 21.0125C34.3914 21.0125 34.3688 21.0159 34.347 21.0203C33.2173 21.3413 33.4436 22.9614 31.3811 23.0994H31.3351H31.1809C31.1507 23.0994 31.1222 23.1038 31.0945 23.1098C30.9185 23.1506 30.7861 23.3129 30.7861 23.5073V25.3521C30.7861 25.5769 30.963 25.76 31.1809 25.76H32.2561L32.2544 33.5828C32.2544 33.8058 32.4287 33.9863 32.6441 33.9863H34.4057C34.6202 33.9863 34.7945 33.8058 34.7945 33.5828L34.7954 25.76H35.7935C36.0105 25.76 36.1874 25.5769 36.1874 25.3521V23.5073C36.1874 23.2825 36.0105 23.0994 35.7935 23.0994Z" fill="#54C1F0"/>
<path d="M29.3831 23.0999H27.6014C27.3843 23.0999 27.2084 23.283 27.2084 23.5078V27.3225C27.2042 27.5585 27.0198 27.7477 26.791 27.7477H26.0451C25.8138 27.7477 25.627 27.555 25.627 27.3155L25.6202 23.5078C25.6202 23.283 25.4434 23.0999 25.2264 23.0999H23.4447C23.2268 23.0999 23.0508 23.283 23.0508 23.5078V27.6887C23.0508 29.2767 24.1444 30.4091 25.6789 30.4091C25.6789 30.4091 26.8304 30.4091 26.8656 30.416C27.0734 30.4403 27.2352 30.6208 27.2352 30.843C27.2352 31.0625 27.0768 31.2421 26.8715 31.269C26.8614 31.2708 26.8522 31.2734 26.8413 31.2751L24.2358 31.2847C24.0179 31.2847 23.8419 31.4677 23.8419 31.6925V33.5365C23.8419 33.7621 24.0179 33.9443 24.2358 33.9443H27.1489C28.6842 33.9443 29.777 32.8128 29.777 31.2239V23.5078C29.777 23.283 29.601 23.0999 29.3831 23.0999Z" fill="#233266"/>
<path d="M12.1377 26.4803V27.3411V27.6188C12.1377 27.8574 11.9508 28.0518 11.7204 28.0518L10.5898 28.0527V25.7713H11.7204C11.9508 25.7713 12.1377 25.964 12.1377 26.2035V26.4803ZM12.2944 23.0995H8.40001C8.18631 23.0995 8.01367 23.2791 8.01367 23.4995V25.3071C8.01367 25.3106 8.01451 25.314 8.01451 25.3175C8.01451 25.3262 8.01367 25.3349 8.01367 25.3427V31.1402V33.5239C8.01367 33.746 8.17458 33.9274 8.37403 33.9326H8.40756H10.1893C10.4063 33.9326 10.5831 33.7504 10.5831 33.5248L10.5898 30.721H12.2944C13.7208 30.721 14.7147 29.6962 14.7147 28.2132V25.6108C14.7147 24.1278 13.7208 23.0995 12.2944 23.0995Z" fill="#233266"/>
<path d="M19.5304 30.8113V31.0994C19.5304 31.1228 19.527 31.1454 19.5237 31.1671C19.5195 31.1879 19.5136 31.2078 19.5069 31.2269C19.4516 31.3883 19.2957 31.5055 19.1105 31.5055H18.3688C18.1375 31.5055 17.949 31.3232 17.949 31.0994V30.7514C17.949 30.7471 17.9481 30.7427 17.9481 30.7384L17.949 29.8125V29.8107V29.7083V29.5226L17.9498 29.52C17.9507 29.297 18.1375 29.1165 18.3688 29.1165H19.1105C19.3427 29.1165 19.5304 29.2979 19.5304 29.5226V30.8113ZM19.2471 23.1099H16.7749C16.5561 23.1099 16.3793 23.2817 16.3793 23.4926V24.2102C16.3793 24.2146 16.3801 24.2198 16.3801 24.2241C16.3801 24.2293 16.3793 24.2345 16.3793 24.2397V25.2229C16.3793 25.4459 16.567 25.6281 16.7983 25.6281H19.1524C19.3385 25.6585 19.486 25.7991 19.5069 26.0186V26.2564C19.486 26.4655 19.3401 26.6183 19.1625 26.6356H17.9967C16.4463 26.6356 15.3418 27.7021 15.3418 29.1998V31.2903V31.3449C15.3418 32.834 16.2913 33.8936 17.8308 33.8936H21.0615C21.6414 33.8936 22.1116 33.4388 22.1116 32.8791V25.8789C22.1116 24.1816 21.2668 23.1099 19.2471 23.1099Z" fill="#233266"/>
</g>
<defs>
<clipPath id="clip0_0_5390">
<rect width="40" height="13" fill="white" transform="translate(8 21)"/>
</clipPath>
</defs>
</svg>
