<svg width="64" height="64" viewBox="0 0 64 64" fill="none" xmlns="http://www.w3.org/2000/svg">
<g clip-path="url(#clip0_0_9556)">
<path opacity="0.2" d="M32 64C49.6731 64 64 49.6731 64 32C64 14.3269 49.6731 0 32 0C14.3269 0 0 14.3269 0 32C0 49.6731 14.3269 64 32 64Z" fill="#E50B20"/>
<path d="M19.7801 19.7811C20.4837 19.0774 21.5969 19.0065 22.3819 19.604L22.5846 19.7811L31.9992 29.197L41.4139 19.7811C42.1367 19.0583 43.2787 19.0101 44.0574 19.6365L44.2184 19.7811C44.9221 20.4848 44.9929 21.5979 44.3762 22.4066L44.2184 22.5856L34.8024 32.0002L44.2184 41.4149C44.9412 42.1377 44.9894 43.2797 44.3629 44.0584L44.2184 44.2194C43.5147 44.9231 42.4015 44.994 41.5929 44.3772L41.4139 44.2194L31.9976 34.8034L22.5846 44.2194C21.8618 44.9422 20.7198 44.9904 19.9411 44.364L19.7801 44.2194C19.0764 43.5158 19.0055 42.4026 19.6222 41.5939L19.7801 41.4149L29.1944 32.0002L19.7801 22.5856C19.0572 21.8628 19.009 20.7208 19.6355 19.9421L19.7801 19.7811Z" fill="#E50B20"/>
</g>
<defs>
<clipPath id="clip0_0_9556">
<rect width="64" height="64" fill="white"/>
</clipPath>
</defs>
</svg>
