<svg width="56" height="56" viewBox="0 0 56 56" fill="none" xmlns="http://www.w3.org/2000/svg">
<rect width="56" height="56" rx="4" fill="#F2F2F2"/>
<g clip-path="url(#clip0_0_5337)">
<path d="M46.5652 22.8396L48.9901 27.6545L43.8926 32.4717L46.5652 22.8396Z" fill="#008C44"/>
<path d="M44.8867 22.8396L47.308 27.6545L42.2139 32.4717L44.8867 22.8396Z" fill="#F47920"/>
<path d="M6.00977 30.7197L8.42744 22.0094H12.2927C13.5007 22.0094 14.3076 22.2007 14.7182 22.5948C15.1257 22.9857 15.2043 23.6238 14.9586 24.5206C14.81 25.0489 14.5841 25.4924 14.2738 25.8428C13.9661 26.1938 13.5602 26.4714 13.0604 26.6755C13.4844 26.7774 13.7542 26.9799 13.8751 27.2834C13.9954 27.5869 13.9815 28.0296 13.8354 28.6098L13.5414 29.8265L13.5406 29.8594C13.4557 30.2001 13.4808 30.3824 13.6191 30.3972L13.53 30.7197H10.9152C10.9241 30.5148 10.9403 30.3316 10.9576 30.1777C10.9766 30.0202 11 29.8982 11.0233 29.8144L11.2671 28.9446C11.3899 28.4922 11.3975 28.1767 11.2835 27.9949C11.1685 27.8083 10.911 27.7165 10.5044 27.7165H9.40557L8.56759 30.7197H6.00977ZM9.9493 25.7537H11.1263C11.5387 25.7537 11.8431 25.6948 12.0307 25.573C12.2192 25.4502 12.3592 25.2427 12.4413 24.9426C12.5263 24.6373 12.5054 24.4246 12.3834 24.3036C12.2616 24.1808 11.9701 24.121 11.5119 24.121H10.4025L9.9493 25.7537Z" fill="#1B3281"/>
<path d="M22.1352 24.2923L20.3529 30.7198H18.187L18.4532 29.7781C18.072 30.1526 17.6819 30.4369 17.2887 30.6187C16.8986 30.8036 16.487 30.8945 16.0537 30.8945C15.6955 30.8945 15.388 30.8295 15.1404 30.7006C14.8898 30.572 14.7032 30.3765 14.5776 30.1188C14.4662 29.8932 14.4176 29.6146 14.4366 29.2817C14.4567 28.9541 14.5724 28.4015 14.7868 27.6277L15.7105 24.2923H18.0796L17.1578 27.6121C17.0232 28.098 16.9911 28.4395 17.0567 28.6255C17.1251 28.8131 17.3077 28.91 17.6041 28.91C17.9025 28.91 18.1535 28.8019 18.3608 28.5813C18.571 28.3627 18.7333 28.0366 18.8553 27.6026L19.7695 24.2923H22.1352Z" fill="#1B3281"/>
<path d="M21.2754 30.7197L23.6905 22.0094H27.0129C27.7459 22.0094 28.3133 22.0527 28.718 22.1477C29.1217 22.2387 29.4384 22.3864 29.6737 22.5948C29.9686 22.8673 30.1493 23.2046 30.2236 23.6092C30.2934 24.0138 30.2521 24.4852 30.099 25.0386C29.8284 26.0123 29.3541 26.7585 28.6783 27.2798C28.0003 27.7944 27.1615 28.053 26.1603 28.053H24.6055L23.867 30.7197H21.2754ZM25.1942 25.9258H26.0297C26.5698 25.9258 26.9496 25.8591 27.172 25.7303C27.3873 25.5999 27.5404 25.3681 27.6337 25.0386C27.7269 24.7047 27.7029 24.4712 27.5619 24.3408C27.4262 24.211 27.0794 24.1453 26.5244 24.1453H25.6907L25.1942 25.9258Z" fill="#1B3281"/>
<path d="M32.8855 30.7198L32.9096 30.1094C32.5276 30.3954 32.1407 30.6115 31.7516 30.7466C31.3643 30.8842 30.9519 30.9541 30.5101 30.9541C29.8391 30.9541 29.3711 30.7717 29.1005 30.4188C28.8333 30.0653 28.7894 29.5576 28.9718 28.91C29.1463 28.2709 29.4568 27.8004 29.9047 27.4996C30.3501 27.1952 31.0939 26.9774 32.1375 26.8381C32.2698 26.8166 32.4471 26.7993 32.6692 26.7725C33.4407 26.6832 33.8738 26.4776 33.9671 26.1422C34.0156 25.9586 33.9861 25.823 33.8721 25.7399C33.7621 25.6535 33.5566 25.6111 33.2598 25.6111C33.0135 25.6111 32.8153 25.6622 32.6527 25.7684C32.4904 25.8756 32.3693 26.0322 32.2871 26.2526H29.9773C30.1859 25.529 30.612 24.9823 31.2518 24.6167C31.8893 24.2448 32.7298 24.0658 33.7708 24.0658C34.2603 24.0658 34.6987 24.1116 35.0862 24.211C35.4744 24.3062 35.7581 24.442 35.9421 24.6062C36.1686 24.8111 36.3027 25.0448 36.3409 25.3032C36.385 25.5609 36.3366 25.9303 36.2016 26.4136L35.208 29.9971C35.1761 30.1144 35.17 30.2191 35.1873 30.3143C35.208 30.4051 35.2477 30.4828 35.3178 30.5383L35.2644 30.7198H32.8855ZM33.4614 27.8498C33.2098 27.9509 32.8828 28.0478 32.4765 28.1542C31.8384 28.3254 31.4794 28.5537 31.4017 28.8364C31.3479 29.0181 31.3696 29.1581 31.4585 29.2644C31.5461 29.3655 31.6982 29.4166 31.9127 29.4166C32.3059 29.4166 32.6217 29.3172 32.857 29.1209C33.093 28.9221 33.2695 28.6099 33.393 28.1793C33.4145 28.0877 33.4335 28.0218 33.4457 27.9726L33.4614 27.8498Z" fill="#1B3281"/>
<path d="M35.2832 33.2528L35.809 31.3504H36.487C36.7135 31.3504 36.8916 31.3057 37.0178 31.2242C37.146 31.1395 37.2331 30.9969 37.2834 30.8048C37.3085 30.7201 37.3239 30.6311 37.3344 30.53C37.3412 30.4227 37.3412 30.3094 37.3344 30.1781L36.9727 24.2926H39.3707L39.3336 28.1925L41.427 24.2926H43.657L39.956 30.6891C39.536 31.404 39.2308 31.8952 39.037 32.1633C38.8458 32.428 38.6642 32.6338 38.488 32.7731C38.2596 32.9658 38.0046 33.1023 37.7294 33.1819C37.4535 33.2632 37.0335 33.3037 36.4688 33.3037C36.3063 33.3037 36.1193 33.3005 35.9171 33.29C35.7163 33.2822 35.5021 33.2701 35.2832 33.2528Z" fill="#1B3281"/>
</g>
<defs>
<clipPath id="clip0_0_5337">
<rect width="43" height="11.3114" fill="white" transform="translate(6 22)"/>
</clipPath>
</defs>
</svg>
