<svg width="56" height="56" viewBox="0 0 56 56" fill="none" xmlns="http://www.w3.org/2000/svg">
<rect width="56" height="56" rx="4" fill="#F2F2F2"/>
<path fill-rule="evenodd" clip-rule="evenodd" d="M18.0499 34.2516H14.7093L12.2042 24.4136C12.0853 23.9611 11.8329 23.561 11.4615 23.3724C10.5347 22.8985 9.5135 22.5214 8.39941 22.3312V21.9525H13.7809C14.5236 21.9525 15.0807 22.5214 15.1735 23.1822L16.4733 30.2787L19.8123 21.9525H23.06L18.0499 34.2516ZM24.9165 34.2516H21.7616L24.3595 21.9525H27.5144L24.9165 34.2516ZM31.5962 25.3598C31.689 24.6974 32.2461 24.3187 32.8959 24.3187C33.9172 24.2236 35.0296 24.4138 35.958 24.886L36.5151 22.2379C35.5867 21.8591 34.5654 21.6689 33.6387 21.6689C30.5766 21.6689 28.3484 23.3726 28.3484 25.737C28.3484 27.5357 29.9267 28.4801 31.0408 29.0491C32.2461 29.6164 32.7103 29.9952 32.6174 30.5625C32.6174 31.4135 31.689 31.7923 30.7622 31.7923C29.6482 31.7923 28.5341 31.5086 27.5145 31.0347L26.9574 33.6845C28.0715 34.1567 29.2768 34.3469 30.3909 34.3469C33.8243 34.4403 35.958 32.7384 35.958 30.1838C35.958 26.9667 31.5962 26.7782 31.5962 25.3598ZM47.0001 34.2516L44.4951 21.9525H41.8043C41.2473 21.9525 40.6902 22.3312 40.5046 22.8985L35.8658 34.2516H39.1136L39.7618 32.4545H43.7523L44.1237 34.2516H47.0001ZM42.2679 25.2651L43.1947 29.9004H40.5968L42.2679 25.2651Z" fill="#172B85"/>
</svg>
